<?xml version="1.0" encoding="UTF-8" standalone="no"?>
<!-- Generator: Adobe Illustrator 19.0.0, SVG Export Plug-In . SVG Version: 6.00 Build 0)  -->

<svg
   version="1.1"
   id="Layer_1"
   x="0px"
   y="0px"
   viewBox="0 0 188 47.000002"
   xml:space="preserve"
   sodipodi:docname="shanta_equity_w.svg"
   inkscape:version="1.1.1 (50ffc5b540, 2022-01-11)"
   width="188"
   height="47"
   xmlns:inkscape="http://www.inkscape.org/namespaces/inkscape"
   xmlns:sodipodi="http://sodipodi.sourceforge.net/DTD/sodipodi-0.dtd"
   xmlns="http://www.w3.org/2000/svg"
   xmlns:svg="http://www.w3.org/2000/svg"><defs
   id="defs27" /><sodipodi:namedview
   id="namedview25"
   pagecolor="#000000"
   bordercolor="#666666"
   borderopacity="1.0"
   inkscape:pageshadow="2"
   inkscape:pageopacity="0"
   inkscape:pagecheckerboard="true"
   showgrid="false"
   inkscape:zoom="6.7021277"
   inkscape:cx="79.45238"
   inkscape:cy="22.753968"
   inkscape:window-width="1920"
   inkscape:window-height="1016"
   inkscape:window-x="0"
   inkscape:window-y="0"
   inkscape:window-maximized="1"
   inkscape:current-layer="XMLID_1746_"
   height="66.1px" />
<style
   type="text/css"
   id="style2">
	.st0{fill:#FFFFFF;}
</style>
<symbol
   id="Logo-White_3_"
   viewBox="-135.3 -32.4 270.5 64.9">
	<path
   id="XMLID_20_"
   class="st0"
   d="m -89.8,5 c -0.6,14 14.2,14.6 17.4,4.7 5.2,-42 -41.9,-51.9 -54.8,-32.7 7.7,-9.9 48.4,-3.9 37.4,28 z" />
	<path
   id="XMLID_19_"
   class="st0"
   d="m -97.5,14.3 c 12.9,-2 14.8,13.3 5.2,17.3 -40.1,8 -53,-39.9 -34.9,-54.6 -9,8.7 -0.6,50 29.7,37.3 z" />
	<g
   id="XMLID_12_">
		<path
   id="XMLID_18_"
   class="st0"
   d="m -27.5,-6.2 c 0,-2.6 -0.9,-4.7 -2.8,-6.2 -1.8,-1.5 -4,-2.2 -6.6,-2.2 h -20.8 v 4.8 h 20.8 c 1.3,0 2.4,0.3 3.4,0.9 1.1,0.7 1.6,1.7 1.6,2.9 0,1.2 -0.6,2.2 -1.7,2.8 -0.9,0.6 -2.1,0.8 -3.4,0.8 h -12.7 c -2.4,0 -4.4,0.7 -6,2 -1.7,1.4 -2.6,3.3 -2.6,5.6 0,2.3 0.9,4.1 2.6,5.6 1.6,1.3 3.6,2 6,2 h 20.6 V 8 h -20.6 c -0.9,0 -1.7,-0.3 -2.3,-0.8 -0.6,-0.5 -1,-1.2 -1,-2 0,-0.9 0.3,-1.6 1,-2 0.6,-0.5 1.4,-0.7 2.3,-0.7 h 12.9 c 2.6,0 4.8,-0.8 6.6,-2.3 1.8,-1.8 2.7,-3.9 2.7,-6.4 z" />
		<path
   id="XMLID_17_"
   class="st0"
   d="m -18.5,-14.7 h -4.7 v 27.3 h 4.8 v -27.3 z m 23,0 h -4.8 v 11.4 h -16 v 4.8 h 16 v 11.2 h 4.8 z" />
		<path
   id="XMLID_16_"
   class="st0"
   d="m 44.4,-14.7 h -6.1 l -4.6,7.6 h -13 l 2.9,4.7 h 7.2 L 26,5.5 13.7,-14.7 H 7.6 L 22.4,10 c 0.4,0.6 0.9,1.2 1.6,1.8 0.8,0.6 1.5,0.9 2.2,0.9 0.7,0 1.4,-0.3 2.2,-0.9 C 29,11.3 29.6,10.7 30,10 Z" />
		<path
   id="XMLID_15_"
   class="st0"
   d="m 73.9,-12.3 c 0,-1.8 -0.6,-2.6 -1.8,-2.6 -0.9,0 -1.9,0.5 -3,1.6 L 51.6,4.3 v -19 h -4.7 v 25 c 0,0.6 0.2,1.2 0.5,1.7 0.3,0.5 0.8,0.7 1.5,0.7 0.9,0 1.8,-0.5 2.7,-1.4 L 69.1,-6.3 v 19 h 4.8 z" />
		<path
   id="XMLID_14_"
   class="st0"
   d="M 105,7.9 H 94.2 V -14.7 H 89.5 V 7.9 H 78.7 v 4.8 H 105 Z" />
		<path
   id="XMLID_13_"
   class="st0"
   d="m 135.3,-14.7 h -6.1 l -4.6,7.6 h -13 l 2.9,4.7 h 7.2 l -4.8,7.9 -12.3,-20.2 H 98.5 L 113.3,10 c 0.4,0.6 0.9,1.2 1.6,1.8 0.8,0.6 1.5,0.9 2.2,0.9 0.7,0 1.4,-0.3 2.2,-0.9 0.6,-0.5 1.2,-1.1 1.6,-1.8 z" />
	</g>
	<g
   id="XMLID_3_">
		<path
   id="XMLID_11_"
   class="st0"
   d="m -57,-26.5 h 4.2 v 4.4 h 0.9 v -9.6 h -0.9 v 4.3 H -57 v -4.3 h -0.9 v 9.6 h 0.9 z" />
		<path
   id="XMLID_10_"
   class="st0"
   d="m -21.1,-26.9 c 0,-1.3 -0.5,-2.4 -1.5,-3.3 -1,-0.9 -2.2,-1.4 -3.6,-1.4 -1.4,0 -2.6,0.5 -3.6,1.4 -1,0.9 -1.5,2 -1.5,3.3 0,1.3 0.5,2.4 1.5,3.3 1,0.9 2.2,1.4 3.6,1.4 1.4,0 2.6,-0.5 3.6,-1.4 1,-0.9 1.5,-2 1.5,-3.3 z m -0.9,0 c 0,1.1 -0.4,2 -1.2,2.7 -0.8,0.7 -1.8,1.1 -3,1.1 -1.2,0 -2.2,-0.4 -2.9,-1.1 -0.8,-0.7 -1.1,-1.6 -1.1,-2.8 0,-1.1 0.4,-2 1.1,-2.8 0.8,-0.7 1.7,-1.1 2.9,-1.1 1.2,0 2.2,0.4 3,1.1 0.8,0.8 1.2,1.8 1.2,2.9 z" />
		<path
   id="XMLID_9_"
   class="st0"
   d="m -0.4,-31.6 v 9.6 h 0.9 v -8.7 h 3 v -0.9 z" />
		<path
   id="XMLID_8_"
   class="st0"
   d="m 24.3,-31.6 v 9.6 h 0.9 v -9.6 z m 0.8,0.9 c 1.1,0 2.1,0.4 2.9,1.1 0.8,0.8 1.2,1.7 1.2,2.8 0,1.1 -0.4,2 -1.2,2.8 -0.8,0.8 -1.8,1.1 -2.9,1.1 v 0.9 c 1.4,0 2.5,-0.5 3.5,-1.4 1,-1 1.5,-2.1 1.5,-3.4 0,-1.3 -0.5,-2.4 -1.5,-3.4 -1,-0.9 -2.2,-1.4 -3.6,-1.4 v 0.9 z" />
		<path
   id="XMLID_7_"
   class="st0"
   d="m 50.9,-22 h 0.9 v -9.6 h -0.9 z" />
		<path
   id="XMLID_6_"
   class="st0"
   d="m 73.5,-23.8 v -7.9 h -0.9 v 9.6 h 0.9 l 4.2,-8 v 8 h 0.9 v -9.6 h -0.9 z" />
		<path
   id="XMLID_5_"
   class="st0"
   d="m 104.3,-31.5 c -1.4,0 -2.5,0.5 -3.5,1.4 -1,0.9 -1.5,2 -1.5,3.3 0,1.3 0.5,2.4 1.5,3.3 1,0.9 2.1,1.4 3.5,1.4 V -23 c -1.1,0 -2.1,-0.4 -2.9,-1.1 -0.8,-0.7 -1.2,-1.6 -1.2,-2.7 0,-1.1 0.4,-2 1.2,-2.7 0.8,-0.7 1.7,-1.1 2.9,-1.1 z m 2.5,7.7 c -0.7,0.5 -1.5,0.8 -2.5,0.8 v 0.9 c 1.3,0 2.5,-0.4 3.4,-1.3 z m 1.4,-3.9 c -0.2,-0.9 -0.7,-1.6 -1.4,-2.1 -0.7,-0.5 -1.6,-0.8 -2.5,-0.8 v -0.9 c 1.2,0 2.2,0.4 3.2,1.1 0.9,0.7 1.5,1.6 1.7,2.7 z m -1.8,0 v 0.9 h 2.8 v -0.9 z" />
		<path
   id="XMLID_4_"
   class="st0"
   d="m 131.4,-31.7 c -0.5,0 -0.9,0 -1.1,0.1 -0.4,0.1 -0.7,0.2 -1,0.4 -0.2,0.2 -0.5,0.5 -0.8,0.9 l 0.8,0.4 c 0.1,-0.2 0.4,-0.4 0.8,-0.6 0.3,-0.2 0.8,-0.3 1.4,-0.3 z m 3.3,2.9 c 0,-0.8 -0.3,-1.5 -0.9,-2 -0.6,-0.6 -1.3,-0.9 -2.1,-0.9 -0.1,0 -0.2,0 -0.3,0 v 0.9 c 0.1,0 0.2,0 0.3,0 0.5,0 1,0.2 1.4,0.6 0.4,0.4 0.6,0.9 0.6,1.4 0,0.7 -0.8,1.3 -2.3,1.9 -1.8,0.8 -2.7,1.7 -2.7,2.6 0,0.7 0.3,1.2 0.8,1.7 0.5,0.5 1.1,0.7 1.8,0.6 v -0.9 c -0.4,0 -0.8,-0.1 -1.2,-0.4 -0.3,-0.3 -0.5,-0.6 -0.6,-1 -0.1,-0.6 0.5,-1.1 1.8,-1.7 0.6,-0.2 1.2,-0.5 1.6,-0.8 1.2,-0.6 1.8,-1.3 1.8,-2 z M 133,-24 c -0.1,0.1 -0.1,0.2 -0.2,0.3 -0.1,0.2 -0.3,0.4 -0.4,0.5 -0.3,0.2 -0.6,0.3 -1,0.3 v 0.9 c 0.6,0 1.1,-0.1 1.6,-0.5 0.3,-0.2 0.5,-0.6 0.8,-1.1 z" />
	</g>
</symbol>
<g
   id="XMLID_1746_"
   transform="matrix(0.6933,0,0,-0.6933,93.782298,22.495901)">
	<path
   id="path29"
   class="st0"
   d="m -89.8,5 c -0.6,14 14.2,14.6 17.4,4.7 5.2,-42 -41.9,-51.9 -54.8,-32.7 7.7,-9.9 48.4,-3.9 37.4,28 z" />
	<path
   id="path31"
   class="st0"
   d="m -97.5,14.3 c 12.9,-2 14.8,13.3 5.2,17.3 -40.1,8 -53,-39.9 -34.9,-54.6 -9,8.7 -0.6,50 29.7,37.3 z" />
	<g
   id="g45">
		<path
   id="path33"
   class="st0"
   d="m -27.5,-6.2 c 0,-2.6 -0.9,-4.7 -2.8,-6.2 -1.8,-1.5 -4,-2.2 -6.6,-2.2 h -20.8 v 4.8 h 20.8 c 1.3,0 2.4,0.3 3.4,0.9 1.1,0.7 1.6,1.7 1.6,2.9 0,1.2 -0.6,2.2 -1.7,2.8 -0.9,0.6 -2.1,0.8 -3.4,0.8 h -12.7 c -2.4,0 -4.4,0.7 -6,2 -1.7,1.4 -2.6,3.3 -2.6,5.6 0,2.3 0.9,4.1 2.6,5.6 1.6,1.3 3.6,2 6,2 h 20.6 V 8 h -20.6 c -0.9,0 -1.7,-0.3 -2.3,-0.8 -0.6,-0.5 -1,-1.2 -1,-2 0,-0.9 0.3,-1.6 1,-2 0.6,-0.5 1.4,-0.7 2.3,-0.7 h 12.9 c 2.6,0 4.8,-0.8 6.6,-2.3 1.8,-1.8 2.7,-3.9 2.7,-6.4 z" />
		<path
   id="path35"
   class="st0"
   d="m -18.5,-14.7 h -4.7 v 27.3 h 4.8 v -27.3 z m 23,0 h -4.8 v 11.4 h -16 v 4.8 h 16 v 11.2 h 4.8 z" />
		<path
   id="path37"
   class="st0"
   d="m 44.4,-14.7 h -6.1 l -4.6,7.6 h -13 l 2.9,4.7 h 7.2 L 26,5.5 13.7,-14.7 H 7.6 L 22.4,10 c 0.4,0.6 0.9,1.2 1.6,1.8 0.8,0.6 1.5,0.9 2.2,0.9 0.7,0 1.4,-0.3 2.2,-0.9 C 29,11.3 29.6,10.7 30,10 Z" />
		<path
   id="path39"
   class="st0"
   d="m 73.9,-12.3 c 0,-1.8 -0.6,-2.6 -1.8,-2.6 -0.9,0 -1.9,0.5 -3,1.6 L 51.6,4.3 v -19 h -4.7 v 25 c 0,0.6 0.2,1.2 0.5,1.7 0.3,0.5 0.8,0.7 1.5,0.7 0.9,0 1.8,-0.5 2.7,-1.4 L 69.1,-6.3 v 19 h 4.8 z" />
		<path
   id="path41"
   class="st0"
   d="M 105,7.9 H 94.2 V -14.7 H 89.5 V 7.9 H 78.7 v 4.8 H 105 Z" />
		<path
   id="path43"
   class="st0"
   d="m 135.3,-14.7 h -6.1 l -4.6,7.6 h -13 l 2.9,4.7 h 7.2 l -4.8,7.9 -12.3,-20.2 H 98.5 L 113.3,10 c 0.4,0.6 0.9,1.2 1.6,1.8 0.8,0.6 1.5,0.9 2.2,0.9 0.7,0 1.4,-0.3 2.2,-0.9 0.6,-0.5 1.2,-1.1 1.6,-1.8 z" />
	</g>
	
<path
   style="fill:#aaa000;stroke-width:0.149206;fill-opacity:1"
   d="M 17.233333,44.916633 C 17.110238,44.887354 16.505952,44.782781 15.890476,44.68425 12.603687,44.158071 9.3295695,42.580952 7.2902222,40.54157 5.9492492,39.200574 3.793129,36.815358 3.1792474,35.993787 -0.31830824,31.312943 -1.0204833,23.35198 1.4358824,16.228251 3.9716777,8.874168 9.2710836,3.3724187 15.97453,1.1344846 c 2.753217,-0.91915667 4.133913,-1.11907554 7.749279,-1.12206271 3.823743,-0.00315932 5.813471,0.2595739 6.93257,0.91540998 2.381734,1.39578903 3.752187,4.22682583 3.317116,6.85239173 -0.515932,3.1135514 -2.870905,4.9769194 -6.28996,4.9769194 -0.917499,0 -1.442862,-0.10813 -2.846158,-0.585797 -2.631981,-0.895896 -3.929163,-1.126251 -6.261187,-1.111868 -2.349618,0.01449 -3.66312,0.305697 -5.587184,1.238685 -4.4538146,2.159677 -7.8153942,7.120678 -9.2080161,13.589138 -0.2892083,1.343317 -0.3368447,2.002732 -0.3341414,4.625397 0.00273,2.652473 0.045179,3.210206 0.319572,4.199194 0.9001522,3.244396 2.8099828,5.164953 6.0558259,6.089837 3.3393206,0.951522 7.9814276,0.684975 11.9268886,-0.684831 4.652922,-1.615428 7.890239,-4.289753 9.650862,-7.972515 0.984941,-2.060237 1.241104,-3.272209 1.259428,-5.958669 0.01686,-2.471564 -0.156245,-3.644129 -0.903117,-6.11746 -0.324455,-1.074457 -0.368631,-1.439251 -0.289098,-2.387302 0.37918,-4.519881 3.091681,-7.040331 7.028028,-6.530428 1.893402,0.245265 3.848864,1.715406 4.760716,3.579163 0.631289,1.290309 0.877393,5.228265 0.527491,8.440479 -0.667483,6.1277 -2.799117,10.768494 -6.76975,14.73847 -2.750558,2.750103 -5.709332,4.583697 -9.358045,5.799312 -2.70831,0.902309 -4.198487,1.146664 -7.363587,1.207464 -1.559206,0.02995 -2.935635,0.0305 -3.05873,0.0012 z"
   id="path78564"
   transform="matrix(1.442377,0,0,-1.442377,-135.26943,32.447571)" /><path
   style="fill:#e6e6e6;fill-opacity:1;stroke-width:0.149206"
   d="m 53.639682,30.975666 v -1.795859 l 7.945238,-0.04228 7.945238,-0.04229 0.665655,-0.373016 c 0.98913,-0.554284 1.390443,-1.227683 1.312249,-2.201941 -0.07163,-0.892512 -0.413784,-1.357883 -1.381078,-1.878452 -0.573387,-0.30858 -0.828291,-0.324584 -6.490476,-0.407518 -3.418483,-0.05007 -6.082216,-0.151028 -6.342644,-0.240392 -1.606015,-0.551089 -2.923377,-1.614594 -3.532949,-2.852145 -0.294202,-0.597288 -0.345042,-0.931346 -0.345042,-2.267171 0,-1.353029 0.04723,-1.655162 0.346314,-2.215627 0.493873,-0.925472 1.387797,-1.843442 2.254532,-2.315179 1.433783,-0.780362 2.100901,-0.835207 10.193598,-0.838032 l 7.423016,-0.0026 v 1.790476 1.790476 h -7.467727 c -8.023724,0 -7.869011,-0.01395 -8.606962,0.77633 -0.728308,0.779958 -0.461799,1.995486 0.554901,2.530858 0.474876,0.250059 0.965829,0.273989 5.669841,0.276355 5.603594,0.0028 6.480226,0.09339 7.908301,0.817049 2.603354,1.319219 3.778983,4.659495 2.676771,7.605419 -0.546357,1.460272 -1.900363,2.635126 -3.756831,3.25976 -0.892448,0.300277 -1.274764,0.315978 -8.952104,0.367649 l -8.019841,0.05398 z"
   id="path79661"
   transform="matrix(1.442377,0,0,-1.442377,-135.26943,32.447571)" /><path
   style="fill:#e6e6e6;fill-opacity:1;stroke-width:0.149206"
   d="m 77.661904,23.201587 v -9.549206 h 1.715873 1.715873 v 9.549206 9.549206 h -1.715873 -1.715873 z"
   id="path79885"
   transform="matrix(1.442377,0,0,-1.442377,-135.26943,32.447571)" /><path
   style="fill:#e6e6e6;fill-opacity:1;stroke-width:0.149206"
   d="m 93.477777,28.796825 v -3.953968 h -5.520635 -5.520635 v -1.715873 -1.715873 h 5.520635 5.520635 v -3.879365 -3.879365 h 1.715873 1.715873 v 9.549206 9.549206 H 95.19365 93.477777 Z"
   id="path79924"
   transform="matrix(1.442377,0,0,-1.442377,-135.26943,32.447571)" /><path
   style="fill:#e6e6e6;fill-opacity:1;stroke-width:0.149206"
   d="m 98.998412,32.666987 c 0,-0.134645 9.965278,-16.737979 10.497678,-17.490377 0.61604,-0.870593 1.63048,-1.524229 2.36559,-1.524229 0.70611,0 1.52641,0.405659 2.16101,1.068671 0.35458,0.370462 9.28672,15.463501 10.47141,17.694027 l 0.1783,0.335714 -2.20604,-8.95e-4 -2.20604,-8.52e-4 -1.56667,-2.606375 -1.56667,-2.606377 -4.52945,-0.0039 c -4.25158,-0.0036 -4.52331,-0.01988 -4.42927,-0.264972 0.0551,-0.143611 0.50377,-0.914153 0.99706,-1.712316 l 0.89687,-1.451205 2.44161,-0.04086 2.44161,-0.04086 -1.52032,-2.49849 c -0.83618,-1.374169 -1.57457,-2.480731 -1.64087,-2.459026 -0.0663,0.0217 -1.97987,3.093168 -4.25238,6.825474 l -4.13184,6.78601 -2.20079,0.04129 c -1.210441,0.02271 -2.200798,-1.2e-5 -2.200798,-0.05049 z"
   id="path79963"
   transform="matrix(1.442377,0,0,-1.442377,-135.26943,32.447571)" /><path
   style="fill:#e6e6e6;fill-opacity:1;stroke-width:0.149206"
   d="m 142.79048,32.655119 c -0.2462,-0.128113 -3.31798,-3.096203 -6.8262,-6.595756 l -6.37857,-6.362824 v 6.527127 6.527127 h -1.72138 -1.72138 l 0.0428,-8.989682 c 0.0388,-8.156533 0.0665,-9.032948 0.2984,-9.456522 0.14058,-0.256762 0.36429,-0.508548 0.49713,-0.559524 0.3828,-0.146897 1.25102,-0.107937 1.60709,0.07212 0.17925,0.09064 3.19626,3.027848 6.70448,6.527128 l 6.37857,6.362326 v -6.527127 -6.527127 h 1.72024 1.72023 l -0.0417,9.263783 -0.0417,9.263784 -0.41864,0.360026 c -0.48622,0.418152 -1.15575,0.460524 -1.81945,0.115145 z"
   id="path80002"
   transform="matrix(1.442377,0,0,-1.442377,-135.26943,32.447571)" /><path
   style="fill:#e6e6e6;fill-opacity:1;stroke-width:0.149206"
   d="m 155.69682,24.91746 v -7.833333 h -3.73015 -3.73016 v -1.715873 -1.715873 h 9.17619 9.17619 v 1.715873 1.715873 h -3.73016 -3.73016 v 7.833333 7.833333 h -1.71587 -1.71588 z"
   id="path80041"
   transform="matrix(1.442377,0,0,-1.442377,-135.26943,32.447571)" /><path
   style="fill:#e6e6e6;fill-opacity:1;stroke-width:0.149206"
   d="m 162.00696,32.638889 c 0.0336,-0.06155 2.41865,-4.046496 5.30012,-8.855441 5.261,-8.780171 5.8253,-9.604921 6.83424,-9.988519 1.14606,-0.435732 2.45655,0.16018 3.3861,1.539748 0.55073,0.817347 9.91311,16.847018 10.0536,17.213144 0.068,0.177315 -0.27271,0.204518 -2.12651,0.169761 l -2.20754,-0.04139 -1.56402,-2.573809 -1.56402,-2.57381 h -4.53936 c -2.53404,0 -4.51739,-0.0577 -4.48962,-0.13062 0.0274,-0.07184 0.48554,-0.843984 1.0182,-1.715873 l 0.96846,-1.585253 h 2.42598 c 1.33429,0 2.42598,-0.03172 2.42598,-0.07048 0,-0.03876 -0.69708,-1.215287 -1.54907,-2.614493 l -1.54907,-2.544011 -4.22692,6.941478 -4.22691,6.941477 h -2.21536 c -1.21845,0 -2.18787,-0.05036 -2.15428,-0.111904 z"
   id="path80080"
   transform="matrix(1.442377,0,0,-1.442377,-135.26943,32.447571)" /><path
   style="fill:#e6e6e6;fill-opacity:1;stroke-width:0.149206"
   d="m 69.256613,43.841799 c -0.189361,-0.189362 -0.114214,-6.689595 0.07958,-6.883387 0.121262,-0.121262 0.817811,-0.179047 2.158242,-0.179047 1.734317,0 1.995811,0.03231 2.113489,0.261111 0.286928,0.55788 0.0732,0.634127 -1.777498,0.634127 h -1.778042 v 1.039558 1.039558 l 1.678571,0.04219 1.678571,0.04219 v 0.373016 0.373016 l -1.678571,0.04219 -1.678571,0.04219 v 1.188764 1.188764 h 1.697603 c 1.769917,0 2.14647,0.126356 1.944563,0.652517 -0.07998,0.208419 -0.393128,0.242722 -2.215802,0.242722 -1.167463,0 -2.167423,-0.04476 -2.222132,-0.09947 z"
   id="path80119"
   transform="matrix(1.442377,0,0,-1.442377,-135.26943,32.447571)" /><path
   style="fill:#e6e6e6;fill-opacity:1;stroke-width:0.149206"
   d="m 92.284126,45.489281 c -0.858143,-0.292167 -1.317706,-0.584159 -1.624817,-1.032358 -0.29313,-0.427795 -0.445387,-0.515748 -0.893622,-0.516211 -0.29716,-3.07e-4 -0.762545,-0.136063 -1.03419,-0.30168 -0.763274,-0.465356 -0.923642,-1.040667 -0.923003,-3.311224 4.78e-4,-1.701091 0.04174,-2.049309 0.291289,-2.45859 0.409041,-0.670846 0.899164,-0.946536 1.858844,-1.045584 1.138586,-0.117512 2.047395,0.23532 2.506062,0.972944 0.31207,0.501867 0.34166,0.723903 0.34166,2.563739 0,2.249472 -0.15567,2.7656 -0.986533,3.270877 l -0.449823,0.273554 0.386856,0.304301 c 0.212771,0.167365 0.657278,0.349988 0.987795,0.405828 0.541812,0.09154 0.596433,0.140469 0.555132,0.497294 -0.03481,0.300765 -0.135348,0.402672 -0.418824,0.424537 -0.205159,0.01582 -0.47373,-0.0055 -0.596826,-0.04743 z m -1.14246,-2.608937 c 0.615544,-0.280461 0.769463,-0.78318 0.769238,-2.512434 -1.64e-4,-1.257091 -0.05428,-1.670543 -0.2597,-1.984051 -0.338265,-0.516258 -1.177715,-0.755506 -1.935187,-0.55154 -0.840652,0.226364 -1.012843,0.682201 -1.012843,2.681272 0,1.635969 0.0064,1.666512 0.436142,2.096299 0.477076,0.477076 1.30379,0.588739 2.00235,0.270454 z"
   id="path80158"
   transform="matrix(1.442377,0,0,-1.442377,-135.26943,32.447571)" /><path
   style="fill:#e6e6e6;fill-opacity:1;stroke-width:0.149206"
   d="m 108.75926,43.796711 c -0.46406,-0.187731 -1.08333,-0.993573 -1.18224,-1.538405 -0.048,-0.264291 -0.0674,-1.588386 -0.0432,-2.942433 l 0.044,-2.461905 h 0.37301 0.37302 l 0.0746,2.618379 c 0.0613,2.151661 0.12095,2.688978 0.33459,3.014455 0.48452,0.738158 2.12885,0.738158 2.61337,0 0.21364,-0.325477 0.27328,-0.862794 0.33458,-3.014455 l 0.0746,-2.618379 h 0.37302 0.37302 l 0.0408,2.668626 c 0.0373,2.441312 0.0145,2.722915 -0.2677,3.30597 -0.39699,0.820069 -1.00211,1.115782 -2.25758,1.103248 -0.52101,-0.0052 -1.08705,-0.066 -1.25787,-0.135101 z"
   id="path80197"
   transform="matrix(1.442377,0,0,-1.442377,-135.26943,32.447571)" /><path
   style="fill:#e6e6e6;fill-opacity:1;stroke-width:0.149206"
   d="m 126.9,40.440148 c 0,-3.005259 0.0331,-3.533628 0.22571,-3.607555 0.12414,-0.04764 0.3268,-0.0027 0.45037,0.09984 0.19021,0.157861 0.21851,0.703779 0.1846,3.560344 l -0.04,3.373893 -0.41031,0.04721 -0.41032,0.04721 z"
   id="path80273"
   transform="matrix(1.442377,0,0,-1.442377,-135.26943,32.447571)" /><path
   style="fill:#e6e6e6;fill-opacity:1;stroke-width:0.149206"
   d="m 143.41846,43.848093 c -0.0582,-0.05817 -0.10576,-1.471003 -0.10576,-3.139628 v -3.033862 h -1.04913 c -1.10839,0 -1.42603,-0.206006 -1.03818,-0.673329 0.27079,-0.326283 4.79907,-0.326283 5.06986,0 0.38749,0.466903 0.0701,0.673329 -1.03516,0.673329 h -1.0461 l -0.0403,3.096032 c -0.0389,2.98783 -0.051,3.097555 -0.34488,3.139627 -0.1675,0.02398 -0.35215,-0.004 -0.41032,-0.06217 z"
   id="path80312"
   transform="matrix(1.442377,0,0,-1.442377,-135.26943,32.447571)" /><path
   style="fill:#e6e6e6;fill-opacity:1;stroke-width:0.149206"
   d="m 162.36767,43.848093 c -0.0582,-0.05817 -0.10577,-0.856478 -0.10577,-1.774017 v -1.668252 l -0.94509,-1.253705 c -1.23422,-1.637256 -1.36392,-1.883715 -1.13588,-2.158482 0.32741,-0.394502 0.57775,-0.221795 1.51866,1.047714 0.51443,0.694093 0.9689,1.261987 1.00993,1.261987 0.041,0 0.49858,-0.571983 1.01677,-1.271074 0.94826,-1.279298 1.24045,-1.452554 1.56921,-0.930465 0.12588,0.199903 -0.0586,0.531739 -0.95385,1.715873 l -1.1099,1.468042 -0.0746,1.790476 c -0.0692,1.660095 -0.0968,1.793651 -0.37915,1.834072 -0.16751,0.02398 -0.35215,-0.004 -0.41032,-0.06217 z"
   id="path80351"
   transform="matrix(1.442377,0,0,-1.442377,-135.26943,32.447571)" /></g>
</svg>
