<?xml version="1.0" encoding="UTF-8" standalone="no"?>
<!-- Created with Inkscape (http://www.inkscape.org/) -->

<svg
   version="1.1"
   id="svg2"
   xml:space="preserve"
   width="177"
   height="46"
   viewBox="0 0 960 288"
   xmlns="http://www.w3.org/2000/svg"
   xmlns:svg="http://www.w3.org/2000/svg"><defs
     id="defs6"><clipPath
       clipPathUnits="userSpaceOnUse"
       id="clipPath16"><path
         d="M 0,216 H 720 V 0 H 0 Z"
         id="path14" /></clipPath></defs><g
     id="g8"
     transform="matrix(1.3333333,0,0,-1.3333333,0,288)"><g
       id="g10"><g
         id="g12"
         clip-path="url(#clipPath16)"><g
           id="g18"
           transform="translate(125.6118,118.729)"><path
             d="M 0,0 C -2.797,35.517 38.339,37.52 46.675,12.134 60.552,-97.396 -66.847,-123.77 -101.948,-73.725 -80.88,-99.411 28.651,-83.675 0,0"
             style="fill:#8f8a33;fill-opacity:1;fill-rule:evenodd;stroke:none"
             id="path20" /></g><g
           id="g22"
           transform="translate(103.9053,141.9438)"><path
             d="M 0,0 C 35.219,-5.124 39.915,35.83 15.139,45.792 -93.168,66.821 -127.801,-58.667 -80.189,-96.992 -104.431,-74.26 -81.581,34.073 0,0"
             style="fill:#8f8a33;fill-opacity:1;fill-rule:evenodd;stroke:none"
             id="path24" /></g><g
           id="g26"
           transform="translate(715.6309,63.873)"><path
             d="m 0,0 -37.858,64.676 c -1.027,1.806 -2.392,3.382 -4.083,4.708 -1.925,1.547 -3.824,2.302 -5.632,2.302 -1.677,0 -3.563,-0.808 -5.643,-2.407 -1.744,-1.391 -3.109,-2.939 -4.085,-4.603 L -96.106,0.117 h 16.007 l 32.203,52.958 12.459,-20.627 h -18.936 l -7.531,-12.355 h 33.891 L -15.995,0.117 Z m -77.392,59.031 h -28.117 V 0 h -12.344 v 59.031 h -28.235 v 12.446 h 68.696 z M -158.637,6.178 c 0,-4.603 -1.574,-6.918 -4.707,-6.918 -2.302,0 -4.877,1.429 -7.739,4.304 l -45.805,46.039 V 0 h -12.341 v 65.3 c 0,1.678 0.456,3.121 1.352,4.344 0.912,1.221 2.21,1.833 3.877,1.833 2.288,0 4.669,-1.222 7.112,-3.667 l 45.805,-45.922 v 49.589 h 12.446 z M -235.925,0 l -15.998,0.117 -12.015,19.976 h -33.894 l 7.531,12.355 h 18.923 l -12.446,20.627 -32.203,-52.958 h -16.008 l 38.808,64.559 c 0.974,1.664 2.329,3.212 4.07,4.603 2.093,1.599 3.981,2.407 5.645,2.407 1.822,0 3.693,-0.755 5.656,-2.302 1.667,-1.326 3.032,-2.902 4.085,-4.708 z m -164.283,0 h -12.459 v 71.477 h 12.459 z m 60.019,0 h -12.433 v 29.73 h -41.954 v 12.434 h 41.954 v 29.313 h 12.433 z m -83.558,22.083 c 0,-6.762 -2.395,-12.199 -7.218,-16.322 C -435.558,1.925 -441.304,0 -448.21,0 h -54.492 v 12.46 h 54.492 c 3.42,0 6.373,0.753 8.882,2.301 2.861,1.874 4.29,4.435 4.29,7.635 0,3.212 -1.456,5.696 -4.381,7.425 -2.458,1.457 -5.371,2.199 -8.791,2.199 h -33.684 c -6.191,0 -11.405,1.703 -15.581,5.136 -4.461,3.693 -6.685,8.584 -6.685,14.644 0,6.009 2.224,10.846 6.685,14.54 4.176,3.42 9.39,5.137 15.581,5.137 h 53.854 V 59.031 h -53.854 c -2.38,0 -4.383,-0.677 -6.074,-2.003 -1.664,-1.327 -2.496,-3.095 -2.496,-5.319 0,-2.301 0.832,-4.095 2.496,-5.345 1.691,-1.248 3.694,-1.872 6.074,-1.872 h 33.684 c 6.906,0 12.652,-2.004 17.245,-5.969 4.823,-4.189 7.218,-9.664 7.218,-16.44"
             style="fill:#414142;fill-opacity:1;fill-rule:nonzero;stroke:none"
             id="path28" /></g><g
           id="g30"
           transform="translate(211.4707,21.269)"><path
             d="M 0,0 V 29.397 H 15.294 V 26.356 H 3.287 V 17.623 H 14.941 V 14.582 H 3.287 V 3.041 H 15.294 V 0 Z"
             style="fill:#414142;fill-opacity:1;fill-rule:nonzero;stroke:none"
             id="path32" /></g><g
           id="g34"
           transform="translate(324.4253,33.2158)"><path
             d="m 0,0 4.91,-5.125 c 2.091,2.186 3.137,4.81 3.137,7.877 0,3.242 -1.133,6.009 -3.401,8.308 -2.266,2.298 -5.024,3.448 -8.275,3.448 -3.246,0 -6.005,-1.15 -8.272,-3.448 -2.267,-2.299 -3.4,-5.066 -3.4,-8.308 0,-3.217 1.139,-5.981 3.419,-8.293 2.279,-2.311 5.031,-3.467 8.253,-3.467 2.367,0 4.484,0.703 6.35,2.112 L -4.155,0 Z m 7.33,-11.719 -2.383,2.561 c -1.158,-0.881 -2.511,-1.565 -4.061,-2.055 -1.547,-0.487 -3.053,-0.734 -4.515,-0.734 -4.08,0 -7.574,1.427 -10.483,4.279 -2.909,2.849 -4.361,6.313 -4.361,10.382 0,4.07 1.452,7.543 4.361,10.42 2.909,2.876 6.403,4.316 10.483,4.316 4.105,0 7.609,-1.452 10.505,-4.354 2.896,-2.902 4.343,-6.387 4.343,-10.457 0,-3.745 -1.372,-7.087 -4.117,-10.026 l 4.271,-4.332 z"
             style="fill:#414142;fill-opacity:1;fill-rule:nonzero;stroke:none"
             id="path36" /></g><g
           id="g38"
           transform="translate(418.3818,50.666)"><path
             d="m 0,0 v -17.209 c 0,-1.1 0.006,-1.877 0.02,-2.338 0.012,-0.461 0.126,-1.119 0.333,-1.973 0.208,-0.857 0.522,-1.565 0.94,-2.128 0.626,-0.842 1.492,-1.515 2.6,-2.01 1.109,-0.499 2.224,-0.75 3.346,-0.75 1.066,0 2.13,0.232 3.186,0.689 1.057,0.461 1.923,1.087 2.6,1.881 0.444,0.536 0.785,1.194 1.018,1.972 0.233,0.779 0.366,1.432 0.392,1.953 0.026,0.525 0.039,1.274 0.039,2.243 V -17.209 0 h 3.284 v -18.089 c 0,-1.843 -0.162,-3.361 -0.486,-4.561 -0.328,-1.201 -1.025,-2.351 -2.094,-3.45 -2.088,-2.198 -4.733,-3.297 -7.939,-3.297 -3.028,0 -5.57,0.984 -7.628,2.951 -1.173,1.099 -1.951,2.287 -2.327,3.564 -0.38,1.277 -0.568,2.874 -0.568,4.793 l 0,18.089 z"
             style="fill:#414142;fill-opacity:1;fill-rule:nonzero;stroke:none"
             id="path40" /></g><path
           d="m 519.886,21.269 h -3.287 v 29.397 h 3.287 z"
           style="fill:#414142;fill-opacity:1;fill-rule:nonzero;stroke:none"
           id="path42" /><g
           id="g44"
           transform="translate(608.2451,47.6255)"><path
             d="M 0,0 V -26.356 H -3.284 V 0 h -7.119 V 3.041 H 7.196 L 7.196,0 Z"
             style="fill:#414142;fill-opacity:1;fill-rule:nonzero;stroke:none"
             id="path46" /></g><g
           id="g48"
           transform="translate(702.6836,33.8994)"><path
             d="m 0,0 -9.66,16.767 h 3.793 l 7.511,-13.1 7.507,13.1 h 3.796 L 3.284,0 V -12.63 H 0 Z"
             style="fill:#414142;fill-opacity:1;fill-rule:nonzero;stroke:none"
             id="path50" /></g><g
           id="g52"
           transform="translate(844.6738,144.5688)"><path
             d="M 0,0 C 35.219,-5.124 39.915,35.83 15.139,45.792 -93.168,66.821 -127.801,-58.667 -80.189,-96.992 -104.431,-74.26 -81.581,34.073 0,0"
             style="fill:#8f8a33;fill-opacity:1;fill-rule:evenodd;stroke:none"
             id="path54" /></g></g></g></g></svg>
